<svg width="25" height="24" fill="none" xmlns="http://www.w3.org/2000/svg"><g clip-path="url('#clip0_12665_591')" fill="#000"><path d="M18.466 0H7.459A6.504 6.504 0 0 0 .962 6.497v11.007A6.504 6.504 0 0 0 7.46 24h11.007a6.504 6.504 0 0 0 6.496-6.496V6.497A6.504 6.504 0 0 0 18.466 0Zm-5.504 18.562A6.57 6.57 0 0 1 6.4 12a6.57 6.57 0 0 1 6.562-6.562A6.57 6.57 0 0 1 19.525 12a6.57 6.57 0 0 1-6.563 6.562Zm6.72-11.577c-1.07 0-1.94-.87-1.94-1.939 0-1.07.87-1.94 1.94-1.94 1.069 0 1.939.87 1.939 1.94 0 1.07-.87 1.94-1.94 1.94Z"/><path d="M12.963 6.845A5.161 5.161 0 0 0 7.807 12a5.161 5.161 0 0 0 5.155 5.155A5.161 5.161 0 0 0 18.119 12a5.161 5.161 0 0 0-5.155-5.155ZM19.681 4.514a.533.533 0 1 0 .002 1.066.533.533 0 0 0-.002-1.066Z"/></g><defs><clipPath id="clip0_12665_591"><path fill="#fff" transform="translate(.962)" d="M0 0h24v24H0z"/></clipPath></defs></svg>