<svg width="49" height="52" fill="none" xmlns="http://www.w3.org/2000/svg"><path d="M22.651 0v21h-3.99L8.191 8.25V21h-4.8V0h4.02l10.44 12.75V0h4.8ZM41.45 16.5H31.7L29.84 21h-4.98l9.36-21h4.8l9.39 21h-5.1l-1.86-4.5Zm-1.53-3.69-3.33-8.04-3.33 8.04h6.66ZM19.952 51l-.03-12.6-6.18 10.38h-2.19l-6.15-10.11V51H.843V30h4.02l7.86 13.05L20.462 30h3.99l.06 21h-4.56Zm18.873.36c-3 0-5.34-.83-7.02-2.49-1.66-1.66-2.49-4.03-2.49-7.11V30h4.86v11.58c0 3.76 1.56 5.64 4.68 5.64 1.52 0 2.68-.45 3.48-1.35.8-.92 1.2-2.35 1.2-4.29V30h4.8v11.76c0 3.08-.84 5.45-2.52 7.11-1.66 1.66-3.99 2.49-6.99 2.49Z" fill="#0F0E08"/></svg>